<?xml version="1.0" encoding="utf-8"?>
<!-- Generator: Adobe Illustrator 27.5.0, SVG Export Plug-In . SVG Version: 6.00 Build 0)  -->
<svg version="1.1" xmlns="http://www.w3.org/2000/svg" xmlns:xlink="http://www.w3.org/1999/xlink" x="0px" y="0px"
	 viewBox="0 0 3710 3710" style="enable-background:new 0 0 3710 3710;" xml:space="preserve">
<g id="Background">
	<g>
		<g>
			<rect style="fill:#FFFFFF;" width="3710" height="3710"/>
		</g>
	</g>
</g>
<g id="Illustration">
	<g>
		<linearGradient id="SVGID_1_" gradientUnits="userSpaceOnUse" x1="3402.1824" y1="3225.9758" x2="1368.9462" y2="1446.8956">
			<stop  offset="0" style="stop-color:#DAE3FE"/>
			<stop  offset="1" style="stop-color:#E9EFFD"/>
		</linearGradient>
		<path style="fill:url(#SVGID_1_);" d="M3056.638,2302.02c-262.776,618.732-962.75,965.349-1569.77,871.851
			c-98.774-15.215-369.567-60.535-609.316-274.342c-461.533-411.594-560.236-1226.603-187.931-1800.96
			c270.973-418.031,756.719-654.998,1218.273-643.145c99.419,2.553,480.433,18.289,815.278,294.395
			c49.182,40.555,157.658,136.924,255.422,289.806C3208.16,1398.623,3227.892,1898.785,3056.638,2302.02z"/>
		<g>
			<g>
				<g style="opacity:0.3;">
					<path style="fill:#91B3FA;" d="M1245.7,1527.537c0.224-5.767,5.084-10.259,10.849-10.033
						c11.202,0.437,22.59,0.395,33.848-0.127c5.696-0.264,10.537,4.086,10.907,9.751c0.004,0.067,0.009,0.134,0.013,0.203
						c0.267,5.764-4.191,10.652-9.956,10.919c-11.849,0.548-23.838,0.594-35.631,0.133c-5.392-0.209-9.671-4.475-10.015-9.745
						C1245.692,1528.275,1245.684,1527.908,1245.7,1527.537z M1345.018,1511.079c11.076-2.05,22.169-4.594,32.981-7.563
						c5.56-1.527,11.312,1.743,12.842,7.307c1.515,5.59-1.746,11.314-7.311,12.842c-11.374,3.124-23.051,5.803-34.705,7.962
						c-5.673,1.05-11.125-2.699-12.176-8.373c-0.076-0.412-0.127-0.824-0.154-1.231
						C1336.154,1516.813,1339.757,1512.053,1345.018,1511.079z M1429.849,1485.311c10.314-4.452,20.558-9.406,30.455-14.731
						c5.081-2.733,11.418-0.829,14.151,4.252c2.725,5.079,0.828,11.414-4.252,14.151c-10.422,5.606-21.213,10.825-32.072,15.512
						c-5.298,2.287-11.445-0.155-13.735-5.451c-0.487-1.13-0.76-2.298-0.836-3.458
						C1423.28,1491.3,1425.681,1487.109,1429.849,1485.311z M1506.786,1441.216c9.07-6.652,17.953-13.777,26.409-21.173
						c4.345-3.798,10.946-3.356,14.743,0.986c3.794,4.347,3.35,10.944-0.986,14.743c-8.906,7.787-18.259,15.286-27.801,22.291
						c-4.652,3.412-11.192,2.409-14.604-2.243c-1.221-1.664-1.878-3.57-2.003-5.488
						C1502.319,1446.889,1503.801,1443.409,1506.786,1441.216z M1571.983,1381.08c7.347-8.48,14.436-17.396,21.063-26.5
						c3.4-4.664,9.934-5.691,14.598-2.295c4.668,3.398,5.693,9.934,2.292,14.596c-6.972,9.577-14.432,18.958-22.163,27.881
						c-3.776,4.361-10.375,4.834-14.737,1.054c-2.198-1.903-3.408-4.523-3.585-7.213
						C1569.279,1385.957,1570.108,1383.244,1571.983,1381.08z M1622.248,1308.018c5.298-9.909,10.234-20.168,14.675-30.495
						c2.279-5.3,8.425-7.751,13.723-5.473c5.302,2.279,7.754,8.421,5.475,13.725c-4.671,10.868-9.87,21.668-15.445,32.096
						c-2.722,5.088-9.051,7.007-14.141,4.287c-3.306-1.767-5.271-5.057-5.5-8.542
						C1620.912,1311.737,1621.293,1309.803,1622.248,1308.018z M1626.356,920.063c5.085-2.725,11.419-0.812,14.144,4.275
						c5.581,10.42,10.783,21.226,15.459,32.115c2.277,5.303-0.175,11.447-5.478,13.722c-5.299,2.277-11.443-0.176-13.72-5.477
						c-4.439-10.339-9.38-20.598-14.682-30.492c-0.727-1.357-1.124-2.802-1.218-4.245
						C1620.601,925.998,1622.626,922.06,1626.356,920.063z M1655.048,1225.682c2.96-10.833,5.486-21.927,7.503-32.975
						c1.04-5.677,6.482-9.438,12.158-8.401c5.679,1.038,9.409,6.479,8.399,12.158c-2.126,11.634-4.785,23.317-7.904,34.725
						c-1.521,5.565-7.266,8.845-12.833,7.324c-4.414-1.206-7.391-5.071-7.674-9.396
						C1654.622,1227.992,1654.735,1226.833,1655.048,1225.682z M1662.204,1003.769c5.565-1.518,11.31,1.767,12.828,7.334
						c3.106,11.404,5.76,23.093,7.896,34.74c1.067,5.677-2.72,11.118-8.394,12.161c-5.674,1.04-11.118-2.719-12.161-8.395
						c-2.029-11.069-4.551-22.178-7.505-33.015c-0.188-0.691-0.299-1.385-0.344-2.074
						C1654.206,1009.667,1657.33,1005.096,1662.204,1003.769z M1668.621,1138.096c0.461-11.216,0.444-22.599-0.055-33.836
						c-0.258-5.766,4.207-10.645,9.974-10.902c5.689-0.252,10.517,4.095,10.887,9.751c0.005,0.073,0.01,0.149,0.01,0.222
						c0.529,11.83,0.548,23.815,0.065,35.619c-0.241,5.766-5.104,10.248-10.87,10.012c-5.384-0.22-9.651-4.483-9.995-9.745
						C1668.613,1138.849,1668.609,1138.474,1668.621,1138.096z"/>
					<path style="fill:#91B3FA;" d="M1580.505,868.693c0.134,2.053,0.873,4.088,2.254,5.82c3.359,4.211,6.683,8.565,9.889,12.936
						c3.409,4.654,9.949,5.664,14.601,2.253c4.656-3.409,5.672-9.952,2.251-14.603c-3.368-4.6-6.866-9.176-10.4-13.609
						c-3.596-4.511-10.172-5.255-14.681-1.659C1581.637,862.047,1580.289,865.394,1580.505,868.693z"/>
				</g>
				<g style="opacity:0.3;">
					<path style="fill:#91B3FA;" d="M1300.454,716.923c0.329,5.032,4.268,9.222,9.449,9.709c5.362,0.502,10.805,1.125,16.174,1.854
						c5.719,0.775,10.983-3.232,11.758-8.949c0.778-5.742-3.234-10.983-8.949-11.758c-5.653-0.765-11.385-1.423-17.031-1.953
						c-5.745-0.538-10.839,3.682-11.379,9.427C1300.423,715.817,1300.418,716.375,1300.454,716.923z"/>
					<path style="fill:#91B3FA;" d="M855.224,1127.636c-0.095-5.769,4.506-10.524,10.279-10.618
						c5.769-0.093,10.511,4.502,10.615,10.277c0.179,10.984,0.83,22.131,1.935,33.259c0.586,5.712-3.625,10.859-9.367,11.429
						c-5.742,0.57-10.858-3.623-11.43-9.365c-0.479-4.821-0.876-9.632-1.19-14.429
						C855.619,1141.346,855.334,1134.431,855.224,1127.636z M874.445,1206.176c5.609-1.341,11.247,2.121,12.587,7.732
						c2.578,10.774,5.635,21.555,9.094,32.044c1.822,5.468-1.169,11.387-6.649,13.196c-5.477,1.806-11.385-1.172-13.191-6.65
						c-3.643-11.043-6.864-22.393-9.573-33.731c-0.141-0.588-0.229-1.177-0.267-1.76
						C866.12,1212.021,869.42,1207.378,874.445,1206.176z M858.196,1070.781c1.401-11.539,3.314-23.178,5.691-34.591
						c1.177-5.649,6.71-9.275,12.361-8.099c5.647,1.177,9.265,6.709,8.097,12.36c-2.26,10.839-4.077,21.888-5.405,32.846
						c-0.697,5.728-5.902,9.809-11.633,9.115c-5.067-0.615-8.843-4.763-9.165-9.678
						C858.102,1072.094,858.116,1071.44,858.196,1070.781z M902.572,1291.254c5.179-2.541,11.442-0.403,13.981,4.778
						c4.871,9.931,10.226,19.77,15.913,29.247c2.974,4.95,1.369,11.364-3.581,14.334c-4.946,2.97-11.362,1.367-14.332-3.579
						c-5.99-9.98-11.629-20.343-16.759-30.799c-0.618-1.264-0.963-2.591-1.05-3.915
						C896.475,1297.221,898.656,1293.175,902.572,1291.254z M879.289,981.423c3.902-10.942,8.328-21.87,13.155-32.482
						c2.388-5.252,8.58-7.573,13.832-5.187c5.256,2.388,7.576,8.583,5.188,13.836c-4.583,10.081-8.788,20.46-12.492,30.851
						c-1.939,5.436-7.917,8.271-13.352,6.331c-4.05-1.445-6.655-5.131-6.918-9.163C878.61,984.23,878.795,982.807,879.289,981.423z
						 M919.468,898.857c6.214-9.848,12.917-19.548,19.921-28.832c3.478-4.606,10.027-5.523,14.635-2.048
						c4.612,3.481,5.527,10.031,2.045,14.633c-6.654,8.821-13.024,18.04-18.931,27.398c-3.079,4.88-9.532,6.339-14.412,3.26
						c-2.939-1.857-4.638-4.938-4.849-8.161C917.738,902.981,918.245,900.794,919.468,898.857z M976.688,827.007
						c8.216-8.265,16.873-16.276,25.726-23.807c4.397-3.74,10.988-3.206,14.728,1.188c3.744,4.401,3.206,10.99-1.188,14.727
						c-8.415,7.156-16.636,14.767-24.445,22.623c-4.068,4.092-10.684,4.112-14.774,0.044c-1.881-1.869-2.901-4.272-3.061-6.724
						C973.484,832.171,974.489,829.22,976.688,827.007z M1048.218,769.35c9.823-6.268,20.028-12.19,30.333-17.598
						c5.109-2.682,11.426-0.715,14.107,4.396c2.677,5.1,0.711,11.423-4.398,14.105c-9.782,5.135-19.472,10.757-28.804,16.712
						c-4.864,3.104-11.321,1.678-14.425-3.187c-0.98-1.537-1.508-3.23-1.619-4.929
						C1043.172,775.171,1044.889,771.476,1048.218,769.35z M1130.712,728.8c10.936-3.94,22.186-7.464,33.441-10.474
						c5.575-1.491,11.305,1.819,12.794,7.393c1.484,5.557-1.817,11.301-7.392,12.792c-10.692,2.859-21.376,6.207-31.765,9.947
						c-5.426,1.956-11.414-0.861-13.368-6.289c-0.34-0.945-0.538-1.908-0.601-2.863
						C1123.525,734.78,1126.229,730.415,1130.712,728.8z M1220.004,707.375c8.498-1.08,17.134-1.91,25.666-2.468
						c3.091-0.202,6.172-0.369,9.251-0.503c5.762-0.251,10.749,4.141,10.89,9.982c0.254,5.764-4.216,10.642-9.982,10.894
						c-2.924,0.128-5.858,0.285-8.795,0.477c-8.113,0.531-16.318,1.319-24.399,2.345c-5.723,0.728-10.953-3.324-11.679-9.048
						c-0.026-0.215-0.049-0.43-0.063-0.644C1210.536,712.944,1214.495,708.073,1220.004,707.375z"/>
					<path style="fill:#91B3FA;" d="M945.025,1377.081c0.136,2.073,0.887,4.124,2.285,5.863c3.548,4.406,7.256,8.819,11.021,13.119
						c3.802,4.342,10.402,4.78,14.743,0.978c4.34-3.803,4.784-10.399,0.978-14.743c-3.576-4.085-7.098-8.278-10.467-12.46
						c-3.615-4.494-10.193-5.204-14.688-1.585C946.143,1370.473,944.81,1373.803,945.025,1377.081z"/>
				</g>
				<g>
					<path style="fill:#91B3FA;" d="M1123.087,1396.471c1.698,1.209,3.974,1.208,5.67-0.002l48.384-34.514
						c25.681,10.527,53.225,17.035,81.73,18.857l28.389,52.17c0.996,1.83,3.043,2.826,5.098,2.481l70.304-11.8
						c2.055-0.344,3.665-1.955,4.008-4.009l9.801-58.581c26.348-11.028,50.259-26.172,71.096-44.507l57,16.827
						c1.998,0.589,4.15-0.154,5.359-1.85l41.37-58.057c1.209-1.696,1.209-3.974-0.002-5.67l-34.515-48.383
						c10.528-25.681,17.037-53.226,18.857-81.731l52.17-28.389c1.83-0.996,2.827-3.042,2.482-5.097l-11.799-70.306
						c-0.345-2.055-1.956-3.664-4.01-4.007l-58.581-9.801c-11.027-26.348-26.172-50.259-44.507-71.095l16.827-57.001
						c0.59-1.998-0.152-4.15-1.85-5.359l-58.057-41.37c-1.696-1.209-3.974-1.207-5.668,0.001l-48.385,34.515
						c-25.681-10.529-53.225-17.036-81.73-18.857l-28.389-52.17c-0.995-1.83-3.042-2.827-5.097-2.482l-70.306,11.8
						c-2.055,0.345-3.664,1.955-4.007,4.01l-9.801,58.581c-26.348,11.028-50.259,26.172-71.096,44.507l-57-16.827
						c-1.997-0.59-4.15,0.152-5.359,1.85l-41.369,58.057c-1.209,1.697-1.208,3.973,0.002,5.669l34.515,48.384
						c-10.528,25.681-17.035,53.225-18.857,81.73l-52.17,28.389c-1.828,0.996-2.826,3.042-2.481,5.098l11.801,70.305
						c0.345,2.054,1.955,3.664,4.01,4.008l58.58,9.801c11.028,26.348,26.173,50.258,44.507,71.095l-16.827,57
						c-0.59,1.998,0.153,4.15,1.85,5.359L1123.087,1396.471z"/>
					<g>
						<path style="fill:#BDD0FB;" d="M1204.276,1115.077c3.198-39.382,37.835-68.822,77.221-65.625
							c19.078,1.547,36.412,10.433,48.806,25.018c12.394,14.581,18.371,33.12,16.818,52.201
							c-3.198,39.382-37.836,68.822-77.221,65.626c-35.83-2.909-63.428-31.841-65.708-66.697
							C1203.965,1122.145,1203.989,1118.628,1204.276,1115.077z M1317.564,1085.295c-9.504-11.183-22.792-17.995-37.422-19.182
							c-30.192-2.45-56.755,20.122-59.205,50.317c-2.462,30.203,20.122,56.755,50.318,59.207
							c30.192,2.45,56.755-20.122,59.205-50.317c0.222-2.738,0.24-5.457,0.064-8.149
							C1329.759,1105.48,1325.287,1094.385,1317.564,1085.295z"/>
					</g>
					<g>
						<path style="fill:#BDD0FB;" d="M1100.819,1130.896c0.392,5.986,1.087,11.988,2.093,17.985l0,0
							c0.316,1.887,0.664,3.771,1.041,5.648c1.861,9.254,4.456,18.346,7.743,27.135c0.045,0.12,0.089,0.24,0.134,0.359
							c0.129,0.339,0.257,0.678,0.39,1.017c0.252,0.66,0.512,1.318,0.771,1.974c0.685,1.726,2.392,2.741,4.151,2.628
							c0.427-0.028,0.859-0.124,1.278-0.29c2.145-0.852,3.184-3.284,2.336-5.427c-4.391-11.036-7.619-22.618-9.598-34.426
							c-9.854-58.652,12.149-115.418,53.349-152.569c22.913-20.667,51.769-35.262,84.392-40.736
							c5.72-0.962,11.448-1.626,17.158-1.998c38.428-2.51,76.235,8.183,108.019,30.833c36.511,26.015,60.706,64.693,68.126,108.904
							c15.316,91.311-46.475,177.987-137.741,193.305c-5.627,0.945-11.282,1.601-16.938,1.969
							c-24.513,1.6-49.103-2.182-71.993-11.16c-0.592-0.231-1.203-0.32-1.797-0.279c-1.564,0.102-3.008,1.086-3.618,2.644
							c-0.837,2.152,0.209,4.575,2.366,5.417c24.031,9.425,49.849,13.398,75.583,11.719c5.938-0.386,11.872-1.075,17.778-2.065
							c95.821-16.081,160.679-107.145,144.604-202.931c-7.79-46.416-33.19-87.016-71.52-114.328
							c-33.367-23.779-73.058-35.004-113.4-32.371c-5.995,0.392-12.006,1.09-18.01,2.096c-46.418,7.792-87.021,33.19-114.332,71.518
							C1109.4,1050.843,1098.178,1090.546,1100.819,1130.896z"/>
					</g>
				</g>
			</g>
			<g>
				<g style="opacity:0.3;">
					<path style="fill:#91B3FA;" d="M994.25,1902.39c0.182,2.786,2.167,5.233,5.032,5.872c5.346,1.197,10.801,2.249,16.214,3.123
						c3.517,0.568,6.827-1.82,7.4-5.341c0.584-3.521-1.824-6.831-5.341-7.4c-5.157-0.834-10.357-1.835-15.459-2.977
						c-3.474-0.78-6.924,1.41-7.707,4.887C994.253,1901.174,994.211,1901.789,994.25,1902.39z"/>
					<path style="fill:#91B3FA;" d="M1043.47,1908.076c0.133-3.561,3.122-6.343,6.686-6.212c8.989,0.324,18.099,0.192,27.073-0.395
						c1.892-0.124,3.791-0.271,5.693-0.436c3.548-0.305,6.676,2.323,6.984,5.874c0.157,3.369-2.323,6.676-5.877,6.987
						c-1.991,0.171-3.977,0.323-5.957,0.453c-9.407,0.615-18.959,0.754-28.385,0.411c-3.336-0.119-5.99-2.756-6.204-6.019
						C1043.468,1908.522,1043.466,1908.301,1043.47,1908.076z M1115.339,1896.226c10.67-2.255,21.296-5.189,31.58-8.726
						c3.372-1.158,7.038,0.632,8.2,4.004c1.148,3.354-0.631,7.042-4.004,8.201c-10.777,3.708-21.918,6.786-33.106,9.148
						c-3.488,0.736-6.912-1.493-7.651-4.981c-0.064-0.305-0.103-0.615-0.123-0.92
						C1110.028,1899.8,1112.161,1896.898,1115.339,1896.226z M1177.186,1874.929c9.778-4.792,19.355-10.25,28.475-16.224
						c2.979-1.951,6.981-1.117,8.932,1.863c1.957,2.991,1.126,6.98-1.86,8.935c-9.561,6.265-19.613,11.988-29.862,17.016
						c-3.2,1.567-7.069,0.248-8.637-2.952c-0.379-0.781-0.591-1.601-0.644-2.418
						C1173.422,1878.617,1174.768,1876.117,1177.186,1874.929z M1231.911,1839.087c8.316-7.055,16.273-14.693,23.631-22.692
						c2.418-2.624,6.499-2.793,9.119-0.379c2.614,2.408,2.793,6.492,0.382,9.116c-7.724,8.393-16.06,16.396-24.783,23.797
						c-2.716,2.306-6.793,1.969-9.099-0.747c-0.925-1.098-1.427-2.413-1.515-3.747
						C1229.517,1842.465,1230.289,1840.462,1231.911,1839.087z M1276.227,1790.97c6.348-8.862,12.204-18.197,17.414-27.751
						c1.703-3.127,5.624-4.28,8.754-2.575c3.13,1.706,4.29,5.624,2.575,8.755c-5.458,10.013-11.6,19.799-18.248,29.089
						c-2.078,2.895-6.108,3.563-9.003,1.489c-1.636-1.172-2.562-2.968-2.684-4.83
						C1274.942,1793.71,1275.325,1792.233,1276.227,1790.97z M1307.52,1733.555c3.998-10.129,7.398-20.601,10.107-31.132
						c0.886-3.449,4.406-5.53,7.855-4.641c3.449,0.889,5.523,4.394,4.645,7.859c-2.839,11.042-6.409,22.03-10.602,32.655
						c-1.311,3.313-5.057,4.941-8.37,3.633c-2.398-0.948-3.915-3.173-4.073-5.585
						C1307.023,1735.422,1307.156,1734.472,1307.52,1733.555z M1323.814,1670.256c1.386-10.767,2.113-21.764,2.156-32.69
						c0.019-3.563,2.919-6.44,6.482-6.423c3.562,0.013,6.386,2.91,6.43,6.481c-0.053,11.453-0.814,22.984-2.267,34.276
						c-0.457,3.535-3.691,6.032-7.226,5.578c-3.108-0.399-5.416-2.955-5.613-5.973
						C1323.749,1671.097,1323.76,1670.679,1323.814,1670.256z M1322.951,1564.798c3.462-0.852,6.954,1.262,7.805,4.725
						c2.357,9.58,4.228,19.455,5.563,29.32c0.211,1.499,0.398,2.993,0.578,4.49c0.52,3.509-2.109,6.75-5.657,7.162
						c-3.54,0.418-6.743-2.113-7.165-5.654c-0.162-1.404-0.342-2.81-0.543-4.24c-1.274-9.443-3.059-18.863-5.305-27.999
						c-0.094-0.376-0.15-0.755-0.175-1.125C1317.851,1568.412,1319.868,1565.555,1322.951,1564.798z"/>
				</g>
				<g style="opacity:0.3;">
					<path style="fill:#91B3FA;" d="M781.792,1650.535c-0.589-11.231-0.493-22.595,0.272-33.779
						c0.247-3.553,3.324-6.239,6.883-5.995c3.559,0.244,6.206,3.348,5.995,6.883c-0.735,10.664-0.822,21.503-0.26,32.218
						c0.189,3.559-2.549,6.595-6.105,6.781c-3.53,0.184-6.549-2.505-6.779-6.02C781.796,1650.595,781.794,1650.564,781.792,1650.535
						z M790.84,1676.659c3.509-0.611,6.852,1.74,7.461,5.25c1.84,10.561,4.337,21.118,7.427,31.377
						c1.012,3.395-0.905,7.012-4.324,8.038c-3.412,1.028-7.006-0.905-8.037-4.318c-3.236-10.751-5.854-21.815-7.778-32.883
						c-0.041-0.234-0.068-0.462-0.084-0.696C785.292,1680.183,787.555,1677.231,790.84,1676.659z M786.445,1583.236
						c2.145-11.046,4.98-22.056,8.431-32.721c1.098-3.391,4.74-5.251,8.127-4.153c3.394,1.094,5.241,4.722,4.157,8.124
						c-3.294,10.174-5.999,20.674-8.05,31.212c-0.68,3.499-4.068,5.783-7.56,5.105c-2.942-0.572-5.025-3.056-5.212-5.911
						C786.303,1584.35,786.336,1583.796,786.445,1583.236z M808.386,1740.217c3.26-1.438,7.07,0.042,8.508,3.302
						c4.324,9.808,9.293,19.446,14.776,28.648c1.817,3.061,0.813,7.023-2.237,8.845c-3.064,1.824-7.025,0.823-8.849-2.24
						c-5.753-9.649-10.968-19.76-15.5-30.048c-0.312-0.712-0.486-1.449-0.534-2.181
						C804.379,1743.915,805.839,1741.341,808.386,1740.217z M807.217,1519.079c4.727-10.183,10.129-20.183,16.053-29.728
						c1.88-3.028,5.86-3.958,8.888-2.078c3.029,1.88,3.965,5.857,2.079,8.888c-5.657,9.101-10.805,18.639-15.31,28.353
						c-1.5,3.231-5.336,4.637-8.573,3.134c-2.215-1.026-3.573-3.157-3.722-5.437
						C806.565,1521.171,806.747,1520.094,807.217,1519.079z M842.779,1461.769c7.042-8.772,14.682-17.194,22.701-25.032
						c2.547-2.49,6.629-2.445,9.12,0.104c2.49,2.543,2.448,6.632-0.104,9.126c-7.645,7.475-14.931,15.512-21.652,23.883
						c-2.23,2.779-6.293,3.222-9.073,0.991c-1.467-1.179-2.285-2.869-2.399-4.614
						C841.27,1464.674,841.729,1463.078,842.779,1461.769z M891.043,1414.619c8.943-6.837,18.386-13.183,28.056-18.861
						c3.077-1.805,7.028-0.775,8.833,2.298c1.805,3.071,0.769,7.026-2.295,8.831c-9.226,5.413-18.227,11.464-26.749,17.987
						c-2.832,2.165-6.884,1.625-9.047-1.208c-0.807-1.049-1.234-2.265-1.314-3.491
						C888.391,1418.093,889.263,1415.983,891.043,1414.619z"/>
					<path style="fill:#91B3FA;" d="M838.465,1803.421c0.081,1.242,0.522,2.473,1.343,3.531c3.386,4.363,6.919,8.644,10.495,12.73
						c2.348,2.679,6.426,2.952,9.109,0.604c2.669-2.351,2.946-6.423,0.604-9.109c-3.412-3.894-6.781-7.98-10.015-12.142
						c-2.186-2.816-6.242-3.323-9.054-1.138C839.19,1799.263,838.33,1801.356,838.465,1803.421z"/>
				</g>
				<g>
					<path style="fill:#91B3FA;" d="M960.148,1820.309c1.136,0.808,2.659,0.808,3.794-0.001l32.377-23.095
						c17.185,7.044,35.616,11.399,54.69,12.618l18.997,34.91c0.667,1.224,2.036,1.891,3.411,1.661l47.044-7.897
						c1.375-0.23,2.453-1.308,2.682-2.682l6.558-39.2c17.631-7.379,33.632-17.512,47.574-29.782l38.142,11.259
						c1.337,0.395,2.777-0.103,3.586-1.238l27.682-38.849c0.809-1.135,0.809-2.659-0.001-3.794l-23.095-32.375
						c7.045-17.185,11.4-35.617,12.618-54.691l34.91-18.996c1.224-0.667,1.891-2.036,1.661-3.411l-7.896-47.046
						c-0.231-1.375-1.309-2.451-2.683-2.681l-39.2-6.558c-7.379-17.631-17.512-33.632-29.782-47.574l11.26-38.142
						c0.394-1.337-0.102-2.777-1.238-3.586l-38.85-27.683c-1.135-0.808-2.658-0.808-3.793,0.001l-32.377,23.096
						c-17.184-7.045-35.615-11.4-54.69-12.618l-18.997-34.91c-0.665-1.225-2.035-1.892-3.411-1.661l-47.046,7.896
						c-1.375,0.231-2.451,1.308-2.681,2.683l-6.558,39.199c-17.631,7.379-33.632,17.513-47.574,29.782l-38.142-11.26
						c-1.337-0.395-2.777,0.102-3.586,1.238l-27.682,38.849c-0.809,1.136-0.808,2.659,0.001,3.794l23.096,32.376
						c-7.045,17.185-11.399,35.616-12.618,54.69l-34.91,18.996c-1.224,0.667-1.891,2.036-1.661,3.411l7.897,47.045
						c0.231,1.375,1.308,2.452,2.683,2.681l39.199,6.559c7.379,17.631,17.514,33.631,29.782,47.574l-11.26,38.142
						c-0.395,1.337,0.103,2.777,1.238,3.586L960.148,1820.309z"/>
					<g>
						<path style="fill:#BDD0FB;" d="M1013.619,1631.947c1.051-12.999,7.104-24.807,17.042-33.25
							c9.931-8.443,22.56-12.512,35.557-11.456c26.823,2.176,46.837,25.736,44.705,52.602c-2.185,26.827-25.78,46.878-52.598,44.698
							c-12.996-1.053-24.804-7.105-33.247-17.039c-6.863-8.076-10.835-17.933-11.515-28.321
							C1013.406,1636.795,1013.424,1634.375,1013.619,1631.947z M1065.177,1600.104c-9.562-0.776-18.851,2.216-26.162,8.428
							c-7.305,6.209-11.757,14.896-12.534,24.455l0,0c-0.764,9.561,2.219,18.848,8.431,26.159
							c6.206,7.307,14.897,11.756,24.452,12.533c19.733,1.601,37.088-13.147,38.695-32.879c0.142-1.781,0.154-3.54,0.04-5.273
							C1096.957,1616.061,1083.125,1601.561,1065.177,1600.104z"/>
					</g>
					<g>
						<path style="fill:#BDD0FB;" d="M941.614,1642.961c0.267,4.075,0.743,8.167,1.429,12.278
							c1.368,8.161,3.567,16.192,6.546,23.888c0.136,0.345,0.273,0.69,0.409,1.034c1.058,2.666,3.693,4.233,6.41,4.058
							c0.66-0.043,1.326-0.191,1.972-0.448c3.311-1.316,4.91-5.071,3.607-8.38c-2.849-7.158-4.937-14.657-6.214-22.284l0-0.003
							c-0.071-0.418-0.136-0.84-0.202-1.256c-2.857-18.08-1.098-36.187,4.875-52.988c3.243-9.12,7.736-17.857,13.424-25.994
							c0.046-0.066,0.092-0.132,0.138-0.198c0.145-0.202,0.283-0.404,0.428-0.603c16.844-23.634,41.881-39.299,70.503-44.102
							c3.704-0.625,7.409-1.053,11.106-1.295c24.877-1.624,49.352,5.3,69.933,19.962c23.635,16.844,39.293,41.882,44.096,70.501
							c4.789,28.604-1.827,57.401-18.664,81.039c-16.843,23.634-41.881,39.299-70.503,44.102c-3.641,0.614-7.302,1.036-10.962,1.276
							c-15.872,1.035-31.789-1.412-46.605-7.225c-0.914-0.357-1.857-0.495-2.775-0.431c-2.415,0.158-4.646,1.677-5.587,4.082
							c-1.292,3.321,0.33,7.061,3.655,8.366c16.579,6.503,34.391,9.243,52.143,8.088c4.1-0.268,8.193-0.741,12.266-1.425
							c32.026-5.376,60.037-22.899,78.881-49.345c18.839-26.443,26.282-58.626,20.882-90.66
							c-5.373-32.023-22.892-60.034-49.342-78.875c-23.019-16.407-50.403-24.151-78.235-22.333c-4.131,0.27-8.281,0.75-12.422,1.445
							C980.809,1525.643,937.594,1581.531,941.614,1642.961z"/>
					</g>
				</g>
			</g>
		</g>
		<g>
			<path style="fill:#7D97F4;" d="M2172.902,2622.815c-0.898-11.132-12.268-20.767-31.522-28.492
				c20.924-11.537,32.499-23.903,31.522-36.032c-2.959-36.701-119.184-57.275-259.596-45.954
				c-140.411,11.322-251.839,50.251-248.879,86.95c0.896,11.133,12.268,20.767,31.522,28.492
				c-20.925,11.539-32.5,23.905-31.522,36.033c0.896,11.13,12.268,20.766,31.522,28.491c-20.925,11.537-32.5,23.905-31.522,36.033
				c0.896,11.132,12.268,20.767,31.522,28.491c-20.925,11.539-32.5,23.905-31.522,36.033c1.309,16.231,24.799,29.299,62.713,37.859
				c-0.492,11.995-0.217,25.142,0.961,39.656c5.493,67.627,81.561,120.651,182.17,120.651c100.612,0,187.69-72.297,188.68-140.14
				c0.241-16.625-0.466-31.26-1.971-44.266c48.139-16.075,77.457-35.711,75.922-54.758c-0.898-11.132-12.268-20.767-31.522-28.491
				c20.924-11.539,32.499-23.905,31.522-36.033c-0.898-11.132-12.268-20.767-31.522-28.491
				C2162.304,2647.31,2173.879,2634.944,2172.902,2622.815z"/>
			<g>
				
					<linearGradient id="SVGID_00000091697983202661602950000011629345927108660914_" gradientUnits="userSpaceOnUse" x1="1893.7871" y1="2877.5779" x2="1673.4674" y2="3680.1731">
					<stop  offset="0" style="stop-color:#4F52FF"/>
					<stop  offset="1" style="stop-color:#4042E2"/>
				</linearGradient>
				<path style="fill:url(#SVGID_00000091697983202661602950000011629345927108660914_);" d="M1848.335,2845.325
					c-41.7,0-79.856-3.067-111.383-9.104c-1.83-0.35-3.028-2.116-2.679-3.946c0.35-1.827,2.109-3.028,3.946-2.677
					c49.331,9.444,115.219,11.526,185.531,5.856c57.533-4.639,111.337-13.918,155.596-26.835c1.792-0.522,3.661,0.503,4.182,2.292
					c0.522,1.788-0.503,3.66-2.292,4.182c-44.692,13.043-98.962,22.409-156.944,27.084
					C1898.177,2844.282,1872.654,2845.325,1848.335,2845.325z"/>
				<path style="fill:#91B3FA;" d="M1849.036,2780.742c-54.181,0-102.599-5.095-136.752-14.822c-1.791-0.509-2.828-2.375-2.32-4.166
					c0.512-1.792,2.371-2.828,4.168-2.32c48.667,13.858,127.027,18.153,209.62,11.496c81.698-6.587,157.891-23.165,203.818-44.348
					c1.693-0.777,3.696-0.04,4.477,1.65c0.778,1.692,0.04,3.696-1.65,4.475c-46.61,21.495-123.658,38.298-206.102,44.945
					C1898.566,2779.726,1873.224,2780.742,1849.036,2780.742z"/>
				<path style="fill:#91B3FA;" d="M1848.343,2716.265c-58.5,0-109.692-5.984-144.148-17.346c-1.771-0.583-2.73-2.49-2.148-4.258
					c0.583-1.769,2.483-2.732,4.258-2.148c47.949,15.812,129.238,21.002,217.446,13.892c81.692-6.586,157.886-23.165,203.818-44.35
					c1.693-0.775,3.696-0.039,4.477,1.65c0.778,1.692,0.04,3.696-1.65,4.476c-46.614,21.496-123.662,38.3-206.102,44.947
					C1898.169,2715.235,1872.624,2716.265,1848.343,2716.265z"/>
				<path style="fill:#91B3FA;" d="M1848.793,2651.711c-46.404,0-88.61-3.752-121.422-11.042c-1.818-0.404-2.965-2.205-2.561-4.022
					c0.404-1.82,2.213-2.968,4.024-2.561c49.34,10.963,120.387,13.803,194.918,7.794c80.966-6.528,156.769-22.927,202.778-43.871
					c1.694-0.775,3.693-0.023,4.465,1.673c0.773,1.695,0.023,3.694-1.673,4.467c-46.679,21.249-123.326,37.866-205.028,44.453
					C1898.478,2650.685,1873.06,2651.711,1848.793,2651.711z"/>
			</g>
			
				<linearGradient id="SVGID_00000093171498530581903350000002794045686254508679_" gradientUnits="userSpaceOnUse" x1="2050.0503" y1="2641.8455" x2="1873.5966" y2="1094.0906">
				<stop  offset="0" style="stop-color:#FF928E"/>
				<stop  offset="1" style="stop-color:#FE7062"/>
			</linearGradient>
			<path style="fill:url(#SVGID_00000093171498530581903350000002794045686254508679_);" d="M1570.185,2297.108
				c-17.054-60.403-46.02-116.851-85.031-166.018c-83.589-105.348-219.954-319.594-236.74-612.003
				c-24.414-425.322,352.798-638.261,697.009-609.353c344.212,28.908,683.861,285.199,646.678,680.878
				c-22.879,243.462-159.147,428.131-260.607,534.185c-64.426,67.345-110.383,149.83-135.26,239.648
				c-30.449,109.934-102.91,246.933-275.139,255.284C1698.234,2630.535,1605.675,2422.804,1570.185,2297.108z"/>
			
				<linearGradient id="SVGID_00000131364003677450935960000006930802845901550224_" gradientUnits="userSpaceOnUse" x1="2046.4563" y1="1976.1528" x2="2095.916" y2="3547.6262">
				<stop  offset="0" style="stop-color:#E1473D"/>
				<stop  offset="1" style="stop-color:#E9605A"/>
			</linearGradient>
			<path style="fill:url(#SVGID_00000131364003677450935960000006930802845901550224_);" d="M1978.024,2534.912l120.44-783.349
				c2.487-16.182,10.451-27.051,17.788-24.274c7.337,2.778,11.267,18.148,8.78,34.331c-0.068,0.432-0.155,0.964-0.23,1.387
				l-137.189,776.069c-1.031,5.836-3.996,9.522-6.62,8.233C1978.447,2546.059,1977.159,2540.563,1978.024,2534.912z"/>
			
				<linearGradient id="SVGID_00000170269434060338439000000011911738643120787600_" gradientUnits="userSpaceOnUse" x1="1774.0052" y1="1984.7286" x2="1823.465" y2="3556.2053">
				<stop  offset="0" style="stop-color:#E1473D"/>
				<stop  offset="1" style="stop-color:#E9605A"/>
			</linearGradient>
			<path style="fill:url(#SVGID_00000170269434060338439000000011911738643120787600_);" d="M1853.003,2541.132l-120.44-783.348
				c-2.487-16.182-10.453-27.051-17.788-24.274c-7.337,2.778-11.267,18.147-8.78,34.331c0.066,0.43,0.155,0.964,0.23,1.387
				l137.189,776.069c1.031,5.836,3.996,9.522,6.62,8.233C1852.58,2552.278,1853.868,2546.783,1853.003,2541.132z"/>
			<path style="opacity:0.65;fill:#FFFFFF;" d="M2097.599,1684.306c-3.059-4.919-10.136-6.755-15.81-4.106l-67.063,31.335
				l-23.279-66.328c-1.231-3.46-4.086-6.528-8.155-8.206c-7.714-3.179-16.941-0.337-20.608,6.351l-0.118,0.216l-55.152,100.559
				l-51.179-143.151l-0.085-0.237c-1.253-3.494-3.894-6.633-7.747-8.735c-8.583-4.685-19.918-2.451-25.323,4.987l-77.103,106.143
				c-3.136,4.35-2.057,10.179,2.716,13.395c5.095,3.434,12.438,2.635,16.397-1.781l67.889-75.729l61.122,136.178l0.046,0.105
				c0.98,2.178,2.824,4.08,5.385,5.278c5.735,2.686,12.896,0.833,15.995-4.139l58.986-94.654l22.2,47.874l0.196,0.426
				c0.161,0.344,0.344,0.683,0.552,1.017c3.056,4.914,10.128,6.75,15.797,4.101l79.605-37.196
				C2098.537,1695.36,2100.657,1689.224,2097.599,1684.306z"/>
		</g>
		<g>
			<g>
				<g>
					<path style="fill:#91B3FA;" d="M3204.715,3169.194l-1428.365,0.002v-285.887l1428.365,0.002
						C3174.142,2883.311,3174.142,3169.194,3204.715,3169.194z"/>
					
						<linearGradient id="SVGID_00000089555075312966042280000003916360948191752628_" gradientUnits="userSpaceOnUse" x1="2521.323" y1="3466.3867" x2="2689.2676" y2="4689.0161">
						<stop  offset="0" style="stop-color:#4F52FF"/>
						<stop  offset="1" style="stop-color:#4042E2"/>
					</linearGradient>
					<path style="fill:url(#SVGID_00000089555075312966042280000003916360948191752628_);" d="M1776.35,3097.655v-130.834
						c0-46.121,28.227-83.51,63.046-83.51h1405.514c1.849,0,3.361-1.513,3.361-3.361v-57.922c0-1.849-1.513-3.361-3.361-3.361
						H1747.604c-34.069,0-88.161,53.565-88.161,119.641v182.725c0,62.3,52.513,112.803,84.635,112.803h1500.833
						c1.849,0,3.361-1.513,3.361-3.361v-57.92c0-1.849-1.513-3.361-3.361-3.361H1830.36
						C1800.531,3169.194,1776.35,3137.165,1776.35,3097.655z"/>
				</g>
				
					<linearGradient id="SVGID_00000088122357871135913440000000751547979713026181_" gradientUnits="userSpaceOnUse" x1="1812.6027" y1="2941.9695" x2="3158.6123" y2="2941.9695">
					<stop  offset="0" style="stop-color:#DAE3FE"/>
					<stop  offset="1" style="stop-color:#E9EFFD"/>
				</linearGradient>
				<path style="fill:url(#SVGID_00000088122357871135913440000000751547979713026181_);" d="M3155.251,2945.331H1815.964
					c-1.858,0-3.361-1.503-3.361-3.361s1.503-3.361,3.361-3.361h1339.287c1.858,0,3.361,1.503,3.361,3.361
					S3157.109,2945.331,3155.251,2945.331z"/>
				
					<linearGradient id="SVGID_00000054244912154124047470000011004274014956737410_" gradientUnits="userSpaceOnUse" x1="1812.6027" y1="2984.4014" x2="3158.6123" y2="2984.4014">
					<stop  offset="0" style="stop-color:#DAE3FE"/>
					<stop  offset="1" style="stop-color:#E9EFFD"/>
				</linearGradient>
				<path style="fill:url(#SVGID_00000054244912154124047470000011004274014956737410_);" d="M3155.251,2987.762H1815.964
					c-1.858,0-3.361-1.503-3.361-3.361s1.503-3.361,3.361-3.361h1339.287c1.858,0,3.361,1.503,3.361,3.361
					S3157.109,2987.762,3155.251,2987.762z"/>
				
					<linearGradient id="SVGID_00000183959229857668998230000013083892923285586878_" gradientUnits="userSpaceOnUse" x1="1812.6027" y1="3026.8364" x2="3158.6123" y2="3026.8364">
					<stop  offset="0" style="stop-color:#DAE3FE"/>
					<stop  offset="1" style="stop-color:#E9EFFD"/>
				</linearGradient>
				<path style="fill:url(#SVGID_00000183959229857668998230000013083892923285586878_);" d="M3155.251,3030.198H1815.964
					c-1.858,0-3.361-1.503-3.361-3.361s1.503-3.361,3.361-3.361h1339.287c1.858,0,3.361,1.503,3.361,3.361
					S3157.109,3030.198,3155.251,3030.198z"/>
				
					<linearGradient id="SVGID_00000124140288936484362600000002954697624068030389_" gradientUnits="userSpaceOnUse" x1="1812.6027" y1="3069.2715" x2="3158.6123" y2="3069.2715">
					<stop  offset="0" style="stop-color:#DAE3FE"/>
					<stop  offset="1" style="stop-color:#E9EFFD"/>
				</linearGradient>
				<path style="fill:url(#SVGID_00000124140288936484362600000002954697624068030389_);" d="M3155.251,3072.633H1815.964
					c-1.858,0-3.361-1.503-3.361-3.361c0-1.858,1.503-3.361,3.361-3.361h1339.287c1.858,0,3.361,1.503,3.361,3.361
					C3158.612,3071.129,3157.109,3072.633,3155.251,3072.633z"/>
				
					<linearGradient id="SVGID_00000129904688875271241560000008960792158543000463_" gradientUnits="userSpaceOnUse" x1="1812.6027" y1="3111.7068" x2="3158.6123" y2="3111.7068">
					<stop  offset="0" style="stop-color:#DAE3FE"/>
					<stop  offset="1" style="stop-color:#E9EFFD"/>
				</linearGradient>
				<path style="fill:url(#SVGID_00000129904688875271241560000008960792158543000463_);" d="M3155.251,3115.068H1815.964
					c-1.858,0-3.361-1.503-3.361-3.361s1.503-3.361,3.361-3.361h1339.287c1.858,0,3.361,1.503,3.361,3.361
					S3157.109,3115.068,3155.251,3115.068z"/>
			</g>
			<g>
				
					<linearGradient id="SVGID_00000094578194022449210290000004867805262647931071_" gradientUnits="userSpaceOnUse" x1="2947.8208" y1="1233.7589" x2="2672.3821" y2="2328.6274">
					<stop  offset="0" style="stop-color:#4F52FF"/>
					<stop  offset="1" style="stop-color:#4042E2"/>
				</linearGradient>
				<path style="fill:url(#SVGID_00000094578194022449210290000004867805262647931071_);" d="M1938.095,2820.608h1291.099
					c7.623,0,13.802-6.179,13.802-13.802v-250.894c0-7.623-6.179-13.802-13.802-13.802H1938.095
					c-7.622,0-13.802,6.179-13.802,13.802v250.894C1924.293,2814.429,1930.472,2820.608,1938.095,2820.608z"/>
				<rect x="2977.064" y="2574.118" style="fill:#7D97F4;" width="135.541" height="214.483"/>
				<rect x="2906.273" y="2574.118" style="fill:#7D97F4;" width="50.856" height="214.483"/>
			</g>
		</g>
		<g>
			<g>
				<rect x="856.717" y="2813.654" style="fill:#7D97F4;" width="31.79" height="343.788"/>
				<path style="fill:#7D97F4;" d="M1011.829,3164.07H733.396v-11.096c0-5.301,4.297-9.597,9.597-9.597h258.491
					c5.713,0,10.344,4.631,10.344,10.344V3164.07z"/>
				<path style="fill:#7D97F4;" d="M1064.482,2800.973c0,19.983-16.349,36.332-36.333,36.332H728.769
					c-19.983,0-36.333-16.35-36.333-36.332v-32.852c0-19.983,16.35-36.332,36.333-36.332h299.381
					c19.983,0,36.333,16.349,36.333,36.332V2800.973z"/>
			</g>
			<g>
				
					<linearGradient id="SVGID_00000099632387877528752760000001530266068074274238_" gradientUnits="userSpaceOnUse" x1="4184.6851" y1="3028.4109" x2="4128.5669" y2="3138.7769" gradientTransform="matrix(1 0 0 1 -2917.5227 0)">
					<stop  offset="0" style="stop-color:#09005D"/>
					<stop  offset="1" style="stop-color:#1A0F91"/>
				</linearGradient>
				<path style="fill:url(#SVGID_00000099632387877528752760000001530266068074274238_);" d="M1189.789,3094.362
					c0,0,90.777,65.432,75.015,109.391c0,0-99.322-42.854-111.322-76.61c-12-33.756,2.03-48.666,2.03-48.666L1189.789,3094.362z"/>
				
					<linearGradient id="SVGID_00000065067901438361228540000010797320447075970697_" gradientUnits="userSpaceOnUse" x1="4077.9722" y1="3072.3318" x2="4133.876" y2="3072.3318" gradientTransform="matrix(1 0 0 1 -2917.5227 0)">
					<stop  offset="0" style="stop-color:#FEBBBA"/>
					<stop  offset="1" style="stop-color:#FF928E"/>
				</linearGradient>
				<path style="fill:url(#SVGID_00000065067901438361228540000010797320447075970697_);" d="M1176.148,3039.525l-14.843,42.911
					c-2.24,6.476,0,13.849,5.792,17.51c2.901,1.833,6.865,3.528,12.284,4.756c7.646,1.733,15.54-1.799,19.217-8.723l17.755-33.435
					L1176.148,3039.525z"/>
				
					<linearGradient id="SVGID_00000172399023002842327000000000370076044058570120_" gradientUnits="userSpaceOnUse" x1="4000.6113" y1="2924.4133" x2="4238.1772" y2="2591.4465" gradientTransform="matrix(1 0 0 1 -2917.5227 0)">
					<stop  offset="0" style="stop-color:#09005D"/>
					<stop  offset="1" style="stop-color:#1A0F91"/>
				</linearGradient>
				<path style="fill:url(#SVGID_00000172399023002842327000000000370076044058570120_);" d="M1031.698,2653.288
					c0,0,186.453,32.315,266.434,106.2c79.981,73.885-73.412,309.57-73.412,309.57s-25.132-0.155-55.588-26.26
					c0,0,90.951-177.255,12.568-228.947c-88.122-58.114-189.677-71.202-189.677-71.202l37.871-83.664L1031.698,2653.288z"/>
				
					<linearGradient id="SVGID_00000137117447082838977380000014178625460104695690_" gradientUnits="userSpaceOnUse" x1="4152.1177" y1="3139.9983" x2="3957.5742" y2="3394.4011" gradientTransform="matrix(1 0 0 1 -2917.5227 0)">
					<stop  offset="0" style="stop-color:#09005D"/>
					<stop  offset="1" style="stop-color:#1A0F91"/>
				</linearGradient>
				<path style="fill:url(#SVGID_00000137117447082838977380000014178625460104695690_);" d="M1249.031,3179.441
					c-19.966-9.243-76.492-48.805-86.021-50.552c-9.528-1.746-26.055,9.452-26.055,9.452s-4.019,7.23,0.28,19.84
					c13.268,16.054,42.726,46.656,82.328,58.06c29.131,8.388,49.507,0.569,62.198-8.582
					C1274.78,3197.026,1262.328,3185.597,1249.031,3179.441z"/>
				
					<linearGradient id="SVGID_00000153681124600387930530000011189731277848617916_" gradientUnits="userSpaceOnUse" x1="4054.7581" y1="3195.0964" x2="4205.0811" y2="3195.0964" gradientTransform="matrix(1 0 0 1 -2917.5227 0)">
					<stop  offset="0" style="stop-color:#4F52FF"/>
					<stop  offset="1" style="stop-color:#4042E2"/>
				</linearGradient>
				<path style="fill:url(#SVGID_00000153681124600387930530000011189731277848617916_);" d="M1219.564,3216.241
					c-39.602-11.404-69.061-42.006-82.328-58.06c2.906,8.521,9.605,19.496,23.923,32.366c35.507,31.913,103.322,43.417,117.76,41.2
					c11.571-1.776,10.48-12.457,2.843-24.087C1269.071,3216.81,1248.695,3224.629,1219.564,3216.241z"/>
				
					<linearGradient id="SVGID_00000142171572488101665020000000883005736765296513_" gradientUnits="userSpaceOnUse" x1="4037.5471" y1="3123.9226" x2="4090.0139" y2="3123.9226" gradientTransform="matrix(1 0 0 1 -2917.5227 0)">
					<stop  offset="0" style="stop-color:#FEBBBA"/>
					<stop  offset="1" style="stop-color:#FF928E"/>
				</linearGradient>
				<path style="fill:url(#SVGID_00000142171572488101665020000000883005736765296513_);" d="M1120.025,3110.412
					c0.224,5.501,11.467,24.366,18.038,34.951c3.123,5.03,8.594,8.103,14.514,8.119c3.755,0.01,8.072-0.317,11.991-1.442
					c5.885-1.689,9.189-7.958,7.468-13.834l-12.84-43.844L1120.025,3110.412z"/>
				
					<linearGradient id="SVGID_00000073679338095725162050000001338023175175996813_" gradientUnits="userSpaceOnUse" x1="3914.9829" y1="3090.335" x2="3928.0774" y2="2645.1311" gradientTransform="matrix(1 0 0 1 -2917.5227 0)">
					<stop  offset="0" style="stop-color:#09005D"/>
					<stop  offset="1" style="stop-color:#1A0F91"/>
				</linearGradient>
				<path style="fill:url(#SVGID_00000073679338095725162050000001338023175175996813_);" d="M852.219,2597.321
					c0,0-41.408,110.722,0,144.393c41.408,33.671,140.19,71.58,162.257,138.646c22.067,67.065,59.515,197.403,109.628,243.563
					c0,0,35.211-3.411,48.387-17.441c0,0-28.542-194.575-47.366-244.5c-16.301-43.235-40.32-105.642-86.348-140.522
					c-13.176-9.985-10.881-25.801-4.772-41.162l11.125-27.974L852.219,2597.321z"/>
				
					<linearGradient id="SVGID_00000106148425516064091130000004197365962512190125_" gradientUnits="userSpaceOnUse" x1="-1583.9779" y1="7317.9902" x2="-1247.8584" y2="7035.6494" gradientTransform="matrix(1 0 0 1 -2917.5227 0)">
					<stop  offset="0" style="stop-color:#FF928E"/>
					<stop  offset="1" style="stop-color:#FE7062"/>
				</linearGradient>
				<path style="fill:url(#SVGID_00000106148425516064091130000004197365962512190125_);" d="M1284.083,2510.54
					c-69.43,4.186-47.795-106.735-46.544-111.147l-105.377,74.43c0,0,5.579,59.318,93.19,90.433
					c22.166,7.871,42.425,8.219,60.336,4.37C1278.051,2546.353,1279.604,2526.366,1284.083,2510.54z"/>
				
					<linearGradient id="SVGID_00000036969429085740260540000015740391299352424633_" gradientUnits="userSpaceOnUse" x1="4197.8647" y1="2518.8916" x2="4380.8877" y2="2518.8916" gradientTransform="matrix(1 0 0 1 -2917.5227 0)">
					<stop  offset="0" style="stop-color:#FEBBBA"/>
					<stop  offset="1" style="stop-color:#FF928E"/>
				</linearGradient>
				<path style="fill:url(#SVGID_00000036969429085740260540000015740391299352424633_);" d="M1418.332,2477.155
					c-25.873-17.997-55.183,0-55.183,0c-34.594,22.624-60.187,32.247-79.066,33.385c-4.479,15.826-6.032,35.813,1.606,58.086
					c38.754-8.33,66.479-36.377,78.527-50.769c4.337-5.181,12.018-6.081,17.321-1.895c5.388,4.253,10.619,10.078,9.671,16.209
					c-1.87,12.091,12.159,15.934,13.217,11.55c1.058-4.385-4.799-30.379-4.799-30.379s28.059,28.216,39.012,39.058
					c10.953,10.843,24.727,0,24.727,0S1444.205,2495.152,1418.332,2477.155z"/>
				
					<linearGradient id="SVGID_00000176747423206979283790000007982325055664833421_" gradientUnits="userSpaceOnUse" x1="-1709.1829" y1="7168.9473" x2="-1373.063" y2="6886.6064" gradientTransform="matrix(1 0 0 1 -2917.5227 0)">
					<stop  offset="0" style="stop-color:#FF928E"/>
					<stop  offset="1" style="stop-color:#FE7062"/>
				</linearGradient>
				<path style="fill:url(#SVGID_00000176747423206979283790000007982325055664833421_);" d="M960.342,2228.094
					c0,0,101.008-40.443,288.988,114.75c0,0,15.701,32.5-1.428,61.428c-17.129,28.928-180.339,169.883-202.771,248.05
					c0,0-97.234,31.594-197.79-43.326C847.341,2608.997,856.215,2391.448,960.342,2228.094z"/>
				
					<linearGradient id="SVGID_00000169547905762012170590000018338371978999914131_" gradientUnits="userSpaceOnUse" x1="4023.2339" y1="2248.7839" x2="4144.6675" y2="2248.7839" gradientTransform="matrix(1 0 0 1 -2917.5227 0)">
					<stop  offset="0" style="stop-color:#FEBBBA"/>
					<stop  offset="1" style="stop-color:#FF928E"/>
				</linearGradient>
				<path style="fill:url(#SVGID_00000169547905762012170590000018338371978999914131_);" d="M1160.024,2192.003l-49.724,60.28
					c-4.937,5.985-6.025,14.31-2.61,21.277c6.901,14.079,23.277,34.575,59.596,31.741c10.803-0.843,20.371-7.362,25.09-17.117
					l34.768-71.873L1160.024,2192.003z"/>
				
					<linearGradient id="SVGID_00000170269296051933731050000013052713164942022815_" gradientUnits="userSpaceOnUse" x1="-1777.9563" y1="7087.0542" x2="-1441.8368" y2="6804.7134" gradientTransform="matrix(1 0 0 1 -2917.5227 0)">
					<stop  offset="0" style="stop-color:#FF928E"/>
					<stop  offset="1" style="stop-color:#FE7062"/>
				</linearGradient>
				<path style="fill:url(#SVGID_00000170269296051933731050000013052713164942022815_);" d="M882.141,2486.262
					c-11.726-47.755,107.046-154.221,107.046-154.221l-28.845-103.946c0,0-256.468,170.733-191.11,308.032
					c9.37,19.683,21.813,33.47,36.241,42.689C826.125,2523.227,859.036,2497.734,882.141,2486.262z"/>
				
					<linearGradient id="SVGID_00000117642559779098956320000016442692393431524746_" gradientUnits="userSpaceOnUse" x1="1410.5354" y1="1673.2371" x2="1097.9586" y2="2142.1016">
					<stop  offset="0" style="stop-color:#E1473D"/>
					<stop  offset="1" style="stop-color:#E9605A"/>
				</linearGradient>
				<path style="fill:url(#SVGID_00000117642559779098956320000016442692393431524746_);" d="M882.057,2479.309
					c-1.26,0-2.408-0.855-2.722-2.137c-11.991-48.826,103-152.582,107.9-156.977c1.151-1.031,2.922-0.939,3.964,0.215
					c1.034,1.155,0.936,2.93-0.215,3.964c-1.177,1.052-117.391,105.879-106.197,151.461c0.369,1.505-0.552,3.025-2.057,3.394
					C882.506,2479.283,882.28,2479.309,882.057,2479.309z"/>
				
					<linearGradient id="SVGID_00000119105117723529103800000018361321851798085296_" gradientUnits="userSpaceOnUse" x1="3940.4248" y1="2521.0947" x2="3475.512" y2="3328.9763" gradientTransform="matrix(1 0 0 1 -2917.5227 0)">
					<stop  offset="0" style="stop-color:#FEBBBA"/>
					<stop  offset="1" style="stop-color:#FF928E"/>
				</linearGradient>
				<path style="fill:url(#SVGID_00000119105117723529103800000018361321851798085296_);" d="M1062.036,2482.151
					c0,0-140.819,54.673-175.192,13.549c-2.331-2.79-3.85-5.964-4.704-9.439c-23.105,11.472-56.016,36.965-76.667,92.554
					c74.063,47.326,200.657-26.328,234.888-48.041c5.631-3.572,12.386-4.825,18.916-3.471c13.203,2.738,36.01,6.763,48.31,4.869
					c17.995-2.772,43.842,60.704,73.009,41.125C1180.595,2573.298,1155.62,2462.962,1062.036,2482.151z"/>
				<g>
					
						<linearGradient id="SVGID_00000119104982570190427480000012374585344402638239_" gradientUnits="userSpaceOnUse" x1="4275.7354" y1="-291.0198" x2="4125.9453" y2="-176.4075" gradientTransform="matrix(0.922 0.3871 -0.3871 0.922 -2786.261 786.7947)">
						<stop  offset="0" style="stop-color:#FEBBBA"/>
						<stop  offset="1" style="stop-color:#FF928E"/>
					</linearGradient>
					<path style="fill:url(#SVGID_00000119104982570190427480000012374585344402638239_);" d="M1284.065,2122.635
						c0,0,0.86,65.639-9.747,95.449c-10.606,29.81-12.265,51.346-48.408,43.072c-36.143-8.274-57.472-36.964-60.661-72.432
						c0,0-5.313-54.821,7.776-70.863C1186.115,2101.819,1284.065,2122.635,1284.065,2122.635z"/>
					
						<linearGradient id="SVGID_00000135667326448178206550000006833166357441608335_" gradientUnits="userSpaceOnUse" x1="4170.5005" y1="-381.4947" x2="4306.1401" y2="-206.8589" gradientTransform="matrix(0.922 0.3871 -0.3871 0.922 -2786.261 786.7947)">
						<stop  offset="0" style="stop-color:#09005D"/>
						<stop  offset="1" style="stop-color:#1A0F91"/>
					</linearGradient>
					<path style="fill:url(#SVGID_00000135667326448178206550000006833166357441608335_);" d="M1185.517,2172.693l4.258,1.787
						c0,0-2.437-43.349,15.632-43.2s84.356,13.332,106.625-2.803c21.469-15.555,21.469-47.29,7.693-61.954
						c-0.871-0.928-2.347-0.954-3.331-0.147l-2.519,2.067c-1.725,1.416-4.296,0.012-4.038-2.205l0,0
						c0.245-2.102-2.111-3.572-3.837-2.349c-6.753,4.786-22.095,10.738-53.652,3.847c-44.777-9.777-79.311-4.492-92.044,23.945
						c-0.807,1.801-3.172,1.988-4.329,0.388c-2.283-3.157-6.824-6.096-15.702-3.333c-15.439,4.804-21.219,31.654-4.8,62.629
						c0.78,1.472-0.008,3.324-1.647,3.621c-5.774,1.049-15.482,5.235-1.897,21.952c13.897,17.101,24.939,20.508,29.371,21.164
						c1.193,0.177,2.329-0.5,2.726-1.639l9.113-26.112c0.471-1.351,1.984-2.024,3.303-1.47L1185.517,2172.693z"/>
					
						<linearGradient id="SVGID_00000152961281966187959340000011571467627410255759_" gradientUnits="userSpaceOnUse" x1="4257.1558" y1="-315.3013" x2="4107.3652" y2="-200.6889" gradientTransform="matrix(0.922 0.3871 -0.3871 0.922 -2786.261 786.7947)">
						<stop  offset="0" style="stop-color:#FEBBBA"/>
						<stop  offset="1" style="stop-color:#FF928E"/>
					</linearGradient>
					<path style="fill:url(#SVGID_00000152961281966187959340000011571467627410255759_);" d="M1184.327,2178.458
						c0,0,5.667-39.32-14.4-36.053c-20.067,3.267-8.428,43.183,3.793,49.875L1184.327,2178.458z"/>
				</g>
			</g>
			<g>
				<g>
					<path style="fill:#91B3FA;" d="M1656.031,3223.667c1.637,0,3.3-0.317,4.9-0.982c6.299-2.624,9.209-9.694,6.499-15.792
						l-260.393-586.037c-2.708-6.096-10.007-8.911-16.312-6.292c-6.299,2.624-9.208,9.694-6.499,15.792l260.393,586.037
						C1646.641,3220.942,1651.22,3223.667,1656.031,3223.667z"/>
					<path style="fill:#91B3FA;" d="M1362.687,3223.667c4.812,0,9.391-2.723,11.411-7.273l260.393-586.037
						c2.71-6.098-0.2-13.168-6.499-15.792c-6.295-2.623-13.6,0.192-16.312,6.292l-260.393,586.037
						c-2.71,6.098,0.2,13.168,6.499,15.792C1359.385,3223.35,1361.051,3223.667,1362.687,3223.667z"/>
					<path style="fill:#91B3FA;" d="M850.003,3223.667c1.637,0,3.3-0.317,4.901-0.982c6.299-2.624,9.208-9.694,6.499-15.792
						L601.01,2620.857c-2.71-6.096-10.005-8.911-16.312-6.292c-6.299,2.624-9.209,9.694-6.499,15.792l260.393,586.037
						C840.613,3220.942,845.192,3223.667,850.003,3223.667z"/>
					<path style="fill:#91B3FA;" d="M556.662,3223.667c4.812,0,9.391-2.723,11.412-7.273l260.393-586.037
						c2.71-6.098-0.2-13.168-6.499-15.792c-6.295-2.623-13.6,0.192-16.312,6.292l-260.393,586.037
						c-2.71,6.098,0.2,13.168,6.499,15.792C553.36,3223.35,555.025,3223.667,556.662,3223.667z"/>
				</g>
				<path style="fill:#91B3FA;" d="M526.119,2602.764c-0.664-3.844,0.24-7.819,2.466-10.838c2.225-3.02,5.539-4.769,9.037-4.769
					h1184.598c4.599,0,8.881,2.624,11.358,6.962c2.478,4.337,2.81,9.79,0.881,14.463l-12.837,31.105
					c-2.939,7.123-9.309,11.684-16.318,11.684H545.75c-6.52,0-12.124-5.176-13.362-12.343L526.119,2602.764z"/>
			</g>
			<g>
				
					<linearGradient id="SVGID_00000160874107134949514650000010255623692033081513_" gradientUnits="userSpaceOnUse" x1="9576.6768" y1="3043.2344" x2="9338.624" y2="3108.4783" gradientTransform="matrix(-0.9988 -0.0494 -0.0494 0.9988 10799.5723 -55.0327)">
					<stop  offset="0" style="stop-color:#09005D"/>
					<stop  offset="1" style="stop-color:#1A0F91"/>
				</linearGradient>
				<path style="fill:url(#SVGID_00000160874107134949514650000010255623692033081513_);" d="M1134.18,2589.965
					c0.226,0.011,0.452,0.017,0.679,0.015l295.459-0.323c7.304-0.006,13.218-5.933,13.211-13.237
					c-0.007-7.306-5.956-13.342-13.24-13.211l-295.459,0.322c-7.304,0.006-13.218,5.934-13.211,13.238
					C1121.628,2583.846,1127.192,2589.619,1134.18,2589.965z"/>
				
					<linearGradient id="SVGID_00000003102457514167408650000016895084076993070494_" gradientUnits="userSpaceOnUse" x1="9351.8584" y1="2357.6777" x2="9182.9492" y2="2536.2041" gradientTransform="matrix(-1 0 0 1 10758.1035 0)">
					<stop  offset="0" style="stop-color:#09005D"/>
					<stop  offset="1" style="stop-color:#1A0F91"/>
				</linearGradient>
				<path style="fill:url(#SVGID_00000003102457514167408650000016895084076993070494_);" d="M1695.923,2321.707h-246.06
					c-18.152,0-34.674,10.475-42.416,26.893l-113.753,241.207h305.787c11.698,0,22.207-7.147,26.507-18.026l88.211-223.202
					C1719.295,2335.683,1709.79,2321.707,1695.923,2321.707z"/>
				
					<linearGradient id="SVGID_00000044161352464922475600000009477378019618844547_" gradientUnits="userSpaceOnUse" x1="9249.7451" y1="2402.1296" x2="9173.1055" y2="2517.5408" gradientTransform="matrix(-1 0 0 1 10758.1035 0)">
					<stop  offset="0" style="stop-color:#4F52FF"/>
					<stop  offset="1" style="stop-color:#4042E2"/>
				</linearGradient>
				<path style="fill:url(#SVGID_00000044161352464922475600000009477378019618844547_);" d="M1522.571,2445.381
					c-5.332,16.566-1.393,32.655,8.799,35.935c10.191,3.28,22.776-7.49,28.108-24.056c5.332-16.566,1.393-32.655-8.799-35.936
					C1540.488,2418.044,1527.903,2428.814,1522.571,2445.381z"/>
			</g>
		</g>
		<g>
			
				<linearGradient id="SVGID_00000167391145668101955510000012718082287075715982_" gradientUnits="userSpaceOnUse" x1="11082.3242" y1="2484.8176" x2="10706.3916" y2="2699.3948" gradientTransform="matrix(-1 0 0 1 13326.4766 0)">
				<stop  offset="0" style="stop-color:#FEBBBA"/>
				<stop  offset="1" style="stop-color:#FF928E"/>
			</linearGradient>
			<path style="fill:url(#SVGID_00000167391145668101955510000012718082287075715982_);" d="M2301.307,2834.628
				c0.443-0.17,238.893-417.754,271.115-457.051c5.42-6.609,13.81-9.975,22.299-8.964l66.556,7.931l78.188,169.15l-130.26-75.862
				c12.89,89.143-154.447,221.62-211.836,269.96c-5.825,4.906-6.302,13.693-1.042,19.199l22.912,23.983
				c-37.616,38.128-81.02,62.61-130.008,73.933L2301.307,2834.628z"/>
			
				<linearGradient id="SVGID_00000129173687744786103590000015347051332749757609_" gradientUnits="userSpaceOnUse" x1="2200.2693" y1="2407.1587" x2="2546.2068" y2="3399.1836">
				<stop  offset="0" style="stop-color:#09005D"/>
				<stop  offset="1" style="stop-color:#1A0F91"/>
			</linearGradient>
			<path style="fill:url(#SVGID_00000129173687744786103590000015347051332749757609_);" d="M2405.985,2770.032
				c0,0,14.623,4.724,19.573,17.747c2.369,6.232-0.184,13.289-5.603,17.171c-24.078,17.251-103.501,72.944-140.152,83.852
				c-3.004,0.894-5.863-1.824-5.187-4.885c1.881-8.514,7.965-25.517,27.566-50.407l-1.759,3.556c-2.225,4.501,2.677,9.188,7.05,6.72
				C2331.986,2829.948,2381.918,2799.659,2405.985,2770.032z"/>
			
				<linearGradient id="SVGID_00000132779722177840324810000007923094844974100888_" gradientUnits="userSpaceOnUse" x1="11045.957" y1="2538.3315" x2="12332.2119" y2="1733.116" gradientTransform="matrix(-1 0 0 1 13326.4766 0)">
				<stop  offset="0" style="stop-color:#FEBBBA"/>
				<stop  offset="1" style="stop-color:#FF928E"/>
			</linearGradient>
			<path style="fill:url(#SVGID_00000132779722177840324810000007923094844974100888_);" d="M2394.185,2937.117
				c0.4-0.257,36.176-86.45,36.575-86.707c32.801-199.711,112.832-370.748,136.434-415.754c3.971-7.57,11.505-12.564,20.023-13.291
				l66.784-5.701l110.803,149.826l-142.917-47.93c30.663,84.69-106.4,248.292-152.82,307.245c-4.71,5.983-3.4,14.685,2.865,19.013
				l27.291,18.851c-29.12,44.951-66.671,77.71-112.354,98.713L2394.185,2937.117z"/>
			
				<linearGradient id="SVGID_00000155142467954827962560000010154851610102680470_" gradientUnits="userSpaceOnUse" x1="2253.9517" y1="2388.439" x2="2599.8892" y2="3380.4648">
				<stop  offset="0" style="stop-color:#09005D"/>
				<stop  offset="1" style="stop-color:#1A0F91"/>
			</linearGradient>
			<path style="fill:url(#SVGID_00000155142467954827962560000010154851610102680470_);" d="M2483.625,2852.674
				c0,0,15.276,1.666,22.76,13.419c3.581,5.622,2.508,13.05-2.012,17.949c-20.089,21.766-86.597,92.38-120.283,110.479
				c-2.761,1.484-6.111-0.6-6.068-3.734c0.119-8.719,2.635-26.602,16.793-54.943l-1.002,3.839c-1.269,4.859,4.48,8.457,8.263,5.155
				C2423.282,2926.324,2466.05,2886.557,2483.625,2852.674z"/>
			<g>
				
					<linearGradient id="SVGID_00000015323363585131037640000007083302772757714322_" gradientUnits="userSpaceOnUse" x1="8813.4941" y1="-6409.561" x2="8618.5439" y2="-6127.2202" gradientTransform="matrix(-1 0 0 1 5494.7764 0)">
					<stop  offset="0" style="stop-color:#09005D"/>
					<stop  offset="1" style="stop-color:#1A0F91"/>
				</linearGradient>
				<path style="fill:url(#SVGID_00000015323363585131037640000007083302772757714322_);" d="M2966.605,2384.109
					c0,0,60.414,89.858,65.371,130.847c4.957,40.989-16.706,55.164-79.939,60.391c-188.172,15.556-280.933-40.84-280.933-40.84
					c-12.872-82.073-22.031-102.953-129.537-147.579c0,0,135.976,10.796,163.342,0.177
					C2732.276,2376.486,2966.605,2384.109,2966.605,2384.109z"/>
			</g>
			<g>
				
					<linearGradient id="SVGID_00000080206809065747131300000003046998528470049706_" gradientUnits="userSpaceOnUse" x1="-4468.144" y1="2104.5972" x2="-4375.7017" y2="2336.4878" gradientTransform="matrix(0.9446 -0.3283 0.3283 0.9446 6190.9395 -1699.1722)">
					<stop  offset="0" style="stop-color:#09005D"/>
					<stop  offset="1" style="stop-color:#1A0F91"/>
				</linearGradient>
				<path style="fill:url(#SVGID_00000080206809065747131300000003046998528470049706_);" d="M2725.693,1880.666
					c0,0,42.078-49.786,86.813,11.297c8.102,11.063,39.221,1.936,50.629,25.092c5.89,11.956,18.614,18.748,31.72,16.33
					c32.642-6.021,86-6.527,112.343,44.626c20.109,39.046,4.584,61.896-15.517,74.924c-14.763,9.569-20.032,28.996-11.105,44.154
					c8.563,14.541,10.173,34.231-11.937,57.927c-49.547,53.103-147.627-33.7-147.627-33.7l-77.875-184.019L2725.693,1880.666z"/>
				
					<linearGradient id="SVGID_00000124155148064410605840000007314241692470280629_" gradientUnits="userSpaceOnUse" x1="3348.5652" y1="1739.6781" x2="3059.5017" y2="2015.297">
					<stop  offset="0" style="stop-color:#FF928E"/>
					<stop  offset="1" style="stop-color:#FE7062"/>
				</linearGradient>
				<path style="fill:url(#SVGID_00000124155148064410605840000007314241692470280629_);" d="M2803.221,2372.213
					c0,0-70.352-66.989-104.984-111.36c-18.719-23.985-24.598-55.56-15.941-84.726c15.812-53.268,43.909-108.438,46.471-117.024
					c3.928-13.162,82.812-12.614,82.812-12.614s155.228,100.745,216.217,271.397l-68.494,21.324c0,0-40.531-67.997-80.576-111.227
					c0,0,69.294,91.539,71.734,129.014L2803.221,2372.213z"/>
				
					<linearGradient id="SVGID_00000163061805987696063500000010896253739083228564_" gradientUnits="userSpaceOnUse" x1="-2027.4291" y1="2361.1333" x2="-1652.9446" y2="2361.1333" gradientTransform="matrix(1 0 0 1 4930.0132 0)">
					<stop  offset="0" style="stop-color:#FEBBBA"/>
					<stop  offset="1" style="stop-color:#FF928E"/>
				</linearGradient>
				<path style="fill:url(#SVGID_00000163061805987696063500000010896253739083228564_);" d="M2669.177,2398.649l52.862-57.516
					l61.052,16.44c0,0,71.176,11.027,111.913,0c40.736-11.027,40.736-11.027,40.736-11.027l92.056-28.66l14.458,40.86
					c3.671,10.375-0.017,21.892-8.987,28.266c-7.964,5.659-17.3,11.879-23.25,14.482c-12.123,5.303-279.265,1.677-279.265,1.677
					L2669.177,2398.649z"/>
				
					<linearGradient id="SVGID_00000178205078594804652990000004155956033652464789_" gradientUnits="userSpaceOnUse" x1="-3984.8589" y1="1796.095" x2="-3966.5525" y2="1662.1702" gradientTransform="matrix(0.9974 -0.0717 0.0717 0.9974 6595.8838 105.0094)">
					<stop  offset="0" style="stop-color:#FEBBBA"/>
					<stop  offset="1" style="stop-color:#FF928E"/>
				</linearGradient>
				<path style="fill:url(#SVGID_00000178205078594804652990000004155956033652464789_);" d="M2757.364,1951.644l53.018,98.588
					c-3.5,21.52-57.704,22.128-66.077,9.277c-0.852-1.308-1.34-2.821-1.663-4.348l-31.715-65.875
					c-1.362-6.424,16.248-28.068,22.044-31.152l21.073-11.218C2762.158,1942.598,2728.299,1942.258,2757.364,1951.644z"/>
				<g>
					
						<linearGradient id="SVGID_00000007424169069046083130000010936990845419273657_" gradientUnits="userSpaceOnUse" x1="-6125.0781" y1="2302.2808" x2="-5952.7129" y2="1995.528" gradientTransform="matrix(0.5458 -0.8379 0.8379 0.5458 4176.8994 -4320.769)">
						<stop  offset="0" style="stop-color:#FEBBBA"/>
						<stop  offset="1" style="stop-color:#FF928E"/>
					</linearGradient>
					<path style="fill:url(#SVGID_00000007424169069046083130000010936990845419273657_);" d="M2650.065,1928.505
						c0,0-5.985,33.308,20.196,75.659c26.179,42.349,52.249,40.438,65.495,25.334c13.244-15.104,29.109-40.258,21.89-82.497
						C2750.428,1904.762,2659.108,1886.03,2650.065,1928.505z"/>
					
						<linearGradient id="SVGID_00000010282399883055833420000013340615908666445453_" gradientUnits="userSpaceOnUse" x1="-6088.0132" y1="2035.1473" x2="-6001.8311" y2="2251.333" gradientTransform="matrix(0.5458 -0.8379 0.8379 0.5458 4176.8994 -4320.769)">
						<stop  offset="0" style="stop-color:#09005D"/>
						<stop  offset="1" style="stop-color:#1A0F91"/>
					</linearGradient>
					<path style="fill:url(#SVGID_00000010282399883055833420000013340615908666445453_);" d="M2725.953,1951.592
						c0,0-42.391-55.681-74.937-7.142l0.548,16.768c0,0-42.323-1.979-37.733-40.986c4.59-39.009,39.142-65.657,87.043-52.329
						c47.901,13.327,75.89,28.505,81.3,61.762c5.41,33.258-21.747,27.824-21.747,27.824s-10.373-22.948-22.899-24.515
						c-12.526-1.568-8,16.584-8,16.584L2725.953,1951.592z"/>
					
						<linearGradient id="SVGID_00000066476738368797299930000016653014923190145465_" gradientUnits="userSpaceOnUse" x1="-6088.3867" y1="2322.8938" x2="-5916.0229" y2="2016.1444" gradientTransform="matrix(0.5458 -0.8379 0.8379 0.5458 4176.8994 -4320.769)">
						<stop  offset="0" style="stop-color:#FEBBBA"/>
						<stop  offset="1" style="stop-color:#FF928E"/>
					</linearGradient>
					<path style="fill:url(#SVGID_00000066476738368797299930000016653014923190145465_);" d="M2735.681,1950.107
						c0,0-21.959-28.495-1.971-34.409c19.989-5.914,19.241,27.921,17.939,40.509L2735.681,1950.107z"/>
				</g>
			</g>
			<g>
				
					<linearGradient id="SVGID_00000080899240590120485420000013904310938371064728_" gradientUnits="userSpaceOnUse" x1="-2119.7849" y1="2309.8958" x2="-2315.6892" y2="2363.5881" gradientTransform="matrix(0.9988 -0.0494 0.0494 0.9988 4888.5444 -55.0328)">
					<stop  offset="0" style="stop-color:#4F52FF"/>
					<stop  offset="1" style="stop-color:#4042E2"/>
				</linearGradient>
				<path style="fill:url(#SVGID_00000080899240590120485420000013904310938371064728_);" d="M2844.16,2421.412
					c-0.186,0.009-0.372,0.014-0.559,0.013l-243.146-0.265c-6.011-0.005-10.878-4.883-10.873-10.893
					c0.006-6.013,4.901-10.98,10.896-10.872l243.147,0.265c6.01,0.005,10.877,4.883,10.872,10.894
					C2854.489,2416.377,2849.91,2421.128,2844.16,2421.412z"/>
				
					<linearGradient id="SVGID_00000170260791514425141770000005987247836680259243_" gradientUnits="userSpaceOnUse" x1="8998.0566" y1="2325.2749" x2="10760.0117" y2="2177.0334" gradientTransform="matrix(1 0 0 1 -6621.0962 0)">
					<stop  offset="0" style="stop-color:#09005D"/>
					<stop  offset="1" style="stop-color:#1A0F91"/>
				</linearGradient>
				<path style="fill:url(#SVGID_00000170260791514425141770000005987247836680259243_);" d="M2381.875,2200.65h202.495
					c14.938,0,28.534,8.621,34.907,22.132l93.612,198.5h-251.646c-9.627,0-18.276-5.882-21.814-14.835l-72.593-183.683
					C2362.642,2212.152,2370.464,2200.65,2381.875,2200.65z"/>
				
					<linearGradient id="SVGID_00000106830347246416958210000008041986675063870631_" gradientUnits="userSpaceOnUse" x1="-2393.7822" y1="2266.8342" x2="-2456.853" y2="2361.8118" gradientTransform="matrix(1 0 0 1 4930.0132 0)">
					<stop  offset="0" style="stop-color:#4F52FF"/>
					<stop  offset="1" style="stop-color:#4042E2"/>
				</linearGradient>
				<path style="fill:url(#SVGID_00000106830347246416958210000008041986675063870631_);" d="M2524.535,2302.427
					c4.388,13.633,1.147,26.875-7.241,29.574c-8.387,2.699-18.743-6.164-23.131-19.798c-4.388-13.633-1.147-26.874,7.241-29.572
					C2509.79,2279.931,2520.146,2288.794,2524.535,2302.427z"/>
			</g>
		</g>
		<g>
			
				<linearGradient id="SVGID_00000083793818202496710330000015783361518468845192_" gradientUnits="userSpaceOnUse" x1="1480.7355" y1="1155.9154" x2="1548.3384" y2="944.6566" gradientTransform="matrix(0.9822 0.188 -0.188 0.9822 952.3442 -30.5627)">
				<stop  offset="0" style="stop-color:#4F52FF"/>
				<stop  offset="1" style="stop-color:#4042E2"/>
			</linearGradient>
			<path style="fill:url(#SVGID_00000083793818202496710330000015783361518468845192_);" d="M2111.251,795.183l-83.142,131.782
				c0,0,5.864,239.097,244.908,363.236c239.045,124.138,365.943,20.033,365.943,20.033l106.445-196.344L2111.251,795.183z"/>
			
				<linearGradient id="SVGID_00000149341785206446289430000015633154973277578936_" gradientUnits="userSpaceOnUse" x1="1490.4617" y1="1014.0786" x2="1820.0028" y2="284.5824" gradientTransform="matrix(0.9822 0.188 -0.188 0.9822 952.3442 -30.5627)">
				<stop  offset="0" style="stop-color:#4F52FF"/>
				<stop  offset="1" style="stop-color:#4042E2"/>
			</linearGradient>
			<path style="fill:url(#SVGID_00000149341785206446289430000015633154973277578936_);" d="M2546.302,654.563l-537.365,29.935
				c-27.67,1.542-42.438,33.311-25.76,55.442c81.354,107.957,265.171,358.157,325.87,493.291c6.493,14.456,22,22.611,37.605,19.852
				l558.857-98.804c25.28-4.469,37.106-33.904,21.923-54.605c-80.066-109.165-284.614-383.39-358.644-438.417
				C2562.317,656.448,2554.353,654.115,2546.302,654.563z"/>
			
				<linearGradient id="SVGID_00000149356929282151503950000014841296231169106850_" gradientUnits="userSpaceOnUse" x1="1918.035" y1="1366.1871" x2="1850.4368" y2="938.0636" gradientTransform="matrix(0.9822 0.188 -0.188 0.9822 952.3442 -30.5627)">
				<stop  offset="0" style="stop-color:#4F52FF"/>
				<stop  offset="1" style="stop-color:#4042E2"/>
			</linearGradient>
			<path style="fill:url(#SVGID_00000149356929282151503950000014841296231169106850_);" d="M2477.588,913.562
				c0,0,232.181,229.787,244.149,273.208c11.967,43.422-68.471,211.011-68.471,211.011
				c9.418,158.969-20.186,322.793-110.705,391.916c0,0-44.981-216.247,12.851-290.424c57.832-74.177,80.571-104.799,80.571-104.799
				s76.198-180.767,71.217-210.116C2707.201,1184.359,2452.311,919.278,2477.588,913.562z"/>
			<path style="fill:#91B3FA;" d="M2067.696,745.804c0,0,101.135,156.435,202.27,312.869c12.641,19.557,25.281,39.11,37.725,58.358
				c6.223,9.624,12.394,19.173,18.493,28.606c3.049,4.717,6.082,9.404,9.092,14.059c1.477,2.262,3.056,4.796,4.441,6.808
				c1.664,2.423,2.938,4.06,4.723,5.945c6.798,7.372,15.821,12.388,25.278,14.393c4.723,1.027,9.549,1.336,14.265,0.955
				c4.914-0.43,10.094-1.037,15.027-1.539c19.902-2.094,38.716-4.077,56.083-5.905c69.469-7.317,115.784-12.191,115.784-12.191
				c1.792-0.19,3.397,1.109,3.588,2.902c0.187,1.782-1.1,3.381-2.875,3.584c0,0-46.266,5.308-115.666,13.268
				c-17.348,1.989-36.146,4.146-56.024,6.427c-5.016,0.552-9.906,1.182-15.211,1.697c-5.511,0.496-11.167,0.187-16.717-0.965
				c-11.114-2.252-21.779-8.039-29.88-16.658c-2.012-2.032-4.11-4.743-5.564-6.85c-1.75-2.508-3.102-4.658-4.681-7.018
				c-3.049-4.628-6.125-9.286-9.217-13.976c-6.187-9.375-12.447-18.867-18.759-28.432c-12.621-19.133-25.445-38.568-38.266-58.004
				c-102.582-155.492-205.165-310.98-205.165-310.98c-2.045-3.099-1.188-7.269,1.91-9.312c3.099-2.045,7.267-1.19,9.312,1.909
				L2067.696,745.804z"/>
			<path style="fill:#91B3FA;" d="M2614.275,1485.237c0,0-0.991,0.643-2.196,1.602c-0.633,0.443-1.493,1.185-2.511,2.078
				c-1.011,0.883-2.203,1.845-3.43,3.132c-1.231,1.264-2.675,2.57-4.113,4.159c-1.418,1.618-2.951,3.371-4.585,5.242
				c-1.622,1.894-3.138,4.106-4.861,6.332c-0.831,1.136-1.746,2.252-2.573,3.483c-0.804,1.254-1.622,2.537-2.458,3.844
				c-1.615,2.659-3.568,5.255-5.104,8.262c-1.595,2.967-3.246,6.04-4.947,9.194c-1.74,3.135-3.03,6.624-4.628,10.047
				c-1.494,3.473-3.233,6.932-4.431,10.701c-1.323,3.719-2.668,7.497-4.034,11.321l-1.028,2.882l-0.817,2.967
				c-0.548,1.986-1.096,3.982-1.648,5.987c-1.093,4.011-2.199,8.058-3.305,12.122c-0.827,4.136-1.657,8.291-2.488,12.447
				c-0.771,4.165-1.799,8.291-2.363,12.486c-0.545,4.195-1.086,8.377-1.625,12.526c-0.532,4.152-1.06,8.275-1.582,12.345
				c-0.263,4.1-0.525,8.15-0.781,12.135c-0.256,3.988-0.509,7.911-0.758,11.751c-0.118,1.92-0.233,3.821-0.348,5.695
				c-0.007,1.884-0.01,3.742-0.016,5.577c-0.023,7.339-0.046,14.279-0.066,20.686c-0.174,6.414,0.338,12.276,0.584,17.482
				c0.282,5.206,0.529,9.746,0.732,13.484c0.407,7.481,0.637,11.754,0.637,11.754l0.007,0.125c0.072,1.29-0.916,2.39-2.206,2.462
				c-1.264,0.069-2.347-0.883-2.455-2.134c0,0-0.371-4.293-1.021-11.807c-0.325-3.762-0.719-8.324-1.172-13.563
				c-0.414-5.239-1.116-11.141-1.152-17.623c-0.184-6.476-0.387-13.494-0.601-20.916c-0.052-1.855-0.105-3.739-0.161-5.642
				c0.056-1.907,0.112-3.837,0.167-5.787c0.128-3.903,0.256-7.891,0.387-11.945c0.135-4.06,0.269-8.186,0.404-12.362
				c0.397-4.165,0.801-8.38,1.208-12.631c0.417-4.251,0.834-8.538,1.257-12.841c0.44-4.303,1.349-8.57,2.009-12.87
				c0.716-4.293,1.435-8.587,2.15-12.864c1.008-4.228,2.012-8.439,3.007-12.618c0.506-2.088,1.008-4.172,1.51-6.243l0.752-3.099
				l0.968-3.026c1.29-4.024,2.567-8.003,3.821-11.912c1.129-3.958,2.826-7.658,4.281-11.347c1.559-3.653,2.806-7.343,4.536-10.727
				c1.694-3.401,3.338-6.709,4.934-9.91c1.533-3.233,3.525-6.105,5.167-9.004c0.857-1.431,1.694-2.833,2.511-4.202
				c0.85-1.356,1.802-2.606,2.665-3.867c1.789-2.481,3.361-4.917,5.075-7.057c1.743-2.127,3.374-4.116,4.881-5.954
				c1.546-1.815,3.135-3.371,4.487-4.835c1.329-1.474,2.702-2.682,3.86-3.755c1.146-1.067,2.137-1.976,3.125-2.734
				c1.927-1.576,2.731-2.114,2.731-2.114l0.213-0.144c3.085-2.065,7.261-1.237,9.325,1.845c2.065,3.085,1.238,7.261-1.844,9.329
				C2614.354,1485.188,2614.292,1485.227,2614.275,1485.237z"/>
			<path style="fill:#91B3FA;" d="M2607.714,1555.566c0,0-0.204,0.732-0.588,2.107c-0.381,1.372-0.663,3.017-1.205,5.298
				c-1.116,5.157-2.708,12.526-4.618,21.369c-3.706,17.899-8.646,41.762-13.589,65.625c-9.696,47.789-19.396,95.574-19.396,95.574
				c-0.394,1.979-2.317,3.266-4.297,2.869c-1.94-0.387-3.21-2.258-2.888-4.195c0,0,8.193-48.084,16.386-96.168
				c4.192-24.034,8.387-48.068,11.531-66.095c1.667-9.089,3.059-16.665,4.031-21.966c0.601-2.928,1.103-5.406,1.444-6.798
				c0.341-1.388,0.522-2.13,0.522-2.13c0.883-3.598,4.517-5.8,8.114-4.917c3.597,0.883,5.797,4.513,4.917,8.111
				c-0.016,0.059-0.03,0.118-0.046,0.177L2607.714,1555.566z"/>
		</g>
	</g>
</g>
</svg>
